<svg xmlns="http://www.w3.org/2000/svg" xmlns:xlink="http://www.w3.org/1999/xlink" version="1.1" width="256" height="256" viewBox="0 0 256 256" xml:space="preserve">
<desc>Created with Fabric.js 1.7.22</desc>
<defs>
</defs>
<g transform="translate(128 128) scale(0.72 0.72)" style="">
	<g style="stroke: none; stroke-width: 0; stroke-dasharray: none; stroke-linecap: butt; stroke-linejoin: miter; stroke-miterlimit: 10; fill: none; fill-rule: nonzero; opacity: 1;" transform="translate(-175.05 -175.05000000000004) scale(3.89 3.89)" >
	<path d="M 63.303 90 H 26.698 C 11.977 90 0 78.023 0 63.303 V 26.698 C 0 11.977 11.977 0 26.698 0 h 36.605 C 78.023 0 90 11.977 90 26.698 v 36.605 C 90 78.023 78.023 90 63.303 90 z M 26.698 2 C 13.08 2 2 13.08 2 26.698 v 36.605 C 2 76.921 13.08 88 26.698 88 h 36.605 C 76.921 88 88 76.921 88 63.303 V 26.698 C 88 13.08 76.921 2 63.303 2 H 26.698 z" style="stroke: none; stroke-width: 1; stroke-dasharray: none; stroke-linecap: butt; stroke-linejoin: miter; stroke-miterlimit: 10; fill: rgb(0,0,0); fill-rule: nonzero; opacity: 1;" transform=" matrix(1 0 0 1 0 0) " stroke-linecap="round" />
	<path d="M 45 69.023 c -13.247 0 -24.023 -10.777 -24.023 -24.023 c 0 -13.247 10.777 -24.023 24.023 -24.023 c 13.246 0 24.023 10.777 24.023 24.023 C 69.023 58.246 58.246 69.023 45 69.023 z M 45 22.977 c -12.144 0 -22.023 9.88 -22.023 22.023 S 32.856 67.023 45 67.023 S 67.023 57.144 67.023 45 S 57.144 22.977 45 22.977 z" style="stroke: none; stroke-width: 1; stroke-dasharray: none; stroke-linecap: butt; stroke-linejoin: miter; stroke-miterlimit: 10; fill: rgb(0,0,0); fill-rule: nonzero; opacity: 1;" transform=" matrix(1 0 0 1 0 0) " stroke-linecap="round" />
	<path d="M 71.119 23.602 c -3.414 0 -6.192 -2.778 -6.192 -6.192 s 2.778 -6.191 6.192 -6.191 s 6.191 2.777 6.191 6.191 S 74.533 23.602 71.119 23.602 z M 71.119 13.218 c -2.312 0 -4.192 1.88 -4.192 4.191 c 0 2.312 1.881 4.192 4.192 4.192 s 4.191 -1.88 4.191 -4.192 C 75.311 15.099 73.431 13.218 71.119 13.218 z" style="stroke: none; stroke-width: 1; stroke-dasharray: none; stroke-linecap: butt; stroke-linejoin: miter; stroke-miterlimit: 10; fill: rgb(0,0,0); fill-rule: nonzero; opacity: 1;" transform=" matrix(1 0 0 1 0 0) " stroke-linecap="round" />
	<path d="M 29.507 45.914 c -0.552 0 -1 -0.448 -1 -1 c 0 -9.063 7.373 -16.435 16.435 -16.435 c 0.552 0 1 0.448 1 1 s -0.448 1 -1 1 c -7.959 0 -14.435 6.476 -14.435 14.435 C 30.507 45.466 30.059 45.914 29.507 45.914 z" style="stroke: none; stroke-width: 1; stroke-dasharray: none; stroke-linecap: butt; stroke-linejoin: miter; stroke-miterlimit: 10; fill: rgb(0,0,0); fill-rule: nonzero; opacity: 1;" transform=" matrix(1 0 0 1 0 0) " stroke-linecap="round" />
	<path d="M 51.131 60.059 c -0.386 0 -0.753 -0.224 -0.917 -0.599 c -0.222 -0.506 0.009 -1.096 0.515 -1.317 c 3.656 -1.602 6.512 -4.678 7.835 -8.439 c 0.183 -0.521 0.752 -0.797 1.275 -0.611 c 0.521 0.184 0.795 0.754 0.611 1.275 c -1.506 4.282 -4.757 7.784 -8.919 9.607 C 51.4 60.032 51.265 60.059 51.131 60.059 z" style="stroke: none; stroke-width: 1; stroke-dasharray: none; stroke-linecap: butt; stroke-linejoin: miter; stroke-miterlimit: 10; fill: rgb(0,0,0); fill-rule: nonzero; opacity: 1;" transform=" matrix(1 0 0 1 0 0) " stroke-linecap="round" />
</g>
</g>
</svg>